<svg width="34" height="34" viewBox="0 0 34 34" fill="none" xmlns="http://www.w3.org/2000/svg">
<g clip-path="url(#clip0_79_434)">
<path d="M17 -2C6.52889 -2 -2 6.48667 -2 17C-2 27.5133 6.52889 36 17 36C27.4711 36 36 27.5133 36 17C36 6.48667 27.4711 -2 17 -2ZM23.3333 13.8333C23.2911 14.4667 23.2067 15.1422 22.9533 15.7333C22.4044 17.6333 21.2644 19.7444 20.1244 21.6444C18.9844 23.5444 17.76 25.1911 17.0422 26.1622C15.5644 24.2622 12.2289 19.4911 11.0889 15.7333C10.8778 15.1422 10.7511 14.5089 10.7089 13.8333V13.6222C10.7089 10.1178 13.5378 7.28889 17 7.28889C18.6889 7.28889 20.2511 7.96444 21.4756 9.14667C22.6578 10.3289 23.3333 11.9333 23.3333 13.6222V13.8333Z" fill="url(#paint0_linear_79_434)"/>
<path d="M19.0777 13.7889C19.0777 14.9432 18.1542 15.8667 16.9999 15.8667C15.8456 15.8667 14.9221 14.9432 14.9221 13.7889C14.9221 12.6346 15.8456 11.7111 16.9999 11.7111C18.1542 11.7111 19.0777 12.6346 19.0777 13.7889Z" fill="url(#paint1_linear_79_434)"/>
</g>
<defs>
<linearGradient id="paint0_linear_79_434" x1="1.82706" y1="2.85555" x2="33.3882" y2="35.6295" gradientUnits="userSpaceOnUse">
<stop stop-color="#EFDA85"/>
<stop offset="1" stop-color="#C78A20"/>
</linearGradient>
<linearGradient id="paint1_linear_79_434" x1="15.3406" y1="12.2421" x2="18.7921" y2="15.8262" gradientUnits="userSpaceOnUse">
<stop stop-color="#EFDA85"/>
<stop offset="1" stop-color="#C78A20"/>
</linearGradient>
<clipPath id="clip0_79_434">
<rect width="34" height="34" rx="17" fill="white"/>
</clipPath>
</defs>
</svg>
