<svg width="34" height="34" viewBox="0 0 34 34" fill="none" xmlns="http://www.w3.org/2000/svg">
<g clip-path="url(#clip0_20_693)">
<path d="M16.9605 0.17041C26.2333 0.17041 33.7507 7.68777 33.7507 16.9605C33.7507 26.2333 26.2333 33.7507 16.9605 33.7507C7.68735 33.7507 0.17041 26.2333 0.17041 16.9605C0.17041 7.68777 7.68735 0.17041 16.9605 0.17041ZM27.0632 22.4925L27.0577 11.6914L20.6229 16.1202L27.0632 22.4925ZM19.5638 16.715L17.2737 18.2496C17.1763 18.313 17.0634 18.3457 16.953 18.3457C16.8413 18.3457 16.7305 18.3134 16.6331 18.25L14.2888 16.6696L7.65419 23.2337H26.2778L19.5638 16.715ZM13.2915 15.9968L6.87261 11.6691V22.4526L13.2915 15.9968ZM16.9526 17.0592L26.2761 10.796H7.66972L16.9526 17.0592Z" fill="url(#paint0_linear_20_693)"/>
</g>
<defs>
<linearGradient id="paint0_linear_20_693" x1="3.55235" y1="4.46122" x2="31.4426" y2="33.4232" gradientUnits="userSpaceOnUse">
<stop stop-color="#EFDA85"/>
<stop offset="1" stop-color="#C78A20"/>
</linearGradient>
<clipPath id="clip0_20_693">
<rect width="34" height="34" fill="white"/>
</clipPath>
</defs>
</svg>
