<svg width="58" height="58" viewBox="0 0 58 58" fill="none" xmlns="http://www.w3.org/2000/svg">
<g clip-path="url(#clip0_39_857)">
<path d="M12.8353 44.8795C8.14484 40.2726 5.27689 34.3026 4.61102 27.8628C2.11815 31.0141 0.766477 34.8791 0.772707 38.9355C0.776899 41.5738 1.37072 44.1964 2.49595 46.5679L0.175714 53.3203C-0.22315 54.4811 0.0682099 55.7415 0.936173 56.6096C1.54699 57.2204 2.3523 57.5457 3.18051 57.5457C3.52896 57.5457 3.88149 57.4882 4.2253 57.37L10.9779 55.0497C13.3494 56.1749 15.972 56.7687 18.6103 56.7729C22.7461 56.7785 26.6823 55.3752 29.8661 52.789C23.4643 52.2098 17.4925 49.4537 12.8353 44.8795Z" fill="url(#paint0_linear_39_857)"/>
<path d="M57.791 45.5212L54.4224 35.7176C56.0462 32.3983 56.9043 28.7066 56.9101 24.9922C56.92 18.5337 54.4213 12.4271 49.8739 7.79725C45.3257 3.16642 39.2649 0.559814 32.8078 0.457521C26.1123 0.351603 19.8189 2.8984 15.0874 7.62971C10.356 12.3611 7.80877 18.6545 7.9148 25.3503C8.0171 31.8073 10.6237 37.8682 15.2543 42.4164C19.8751 46.9549 25.9662 49.453 32.4109 49.4528C32.4236 49.4528 32.437 49.4528 32.4494 49.4528C36.1639 49.447 39.8555 48.5889 43.1749 46.9651L52.9787 50.3339C53.3872 50.4742 53.8061 50.5427 54.2202 50.5427C55.2044 50.5427 56.1614 50.1561 56.8874 49.43C57.9188 48.3985 58.265 46.9009 57.791 45.5212ZM34.7777 33.4552H22.1272C21.1738 33.4552 20.401 32.6823 20.401 31.729C20.401 30.7756 21.1739 30.0028 22.1272 30.0028H34.7776C35.731 30.0028 36.5038 30.7757 36.5038 31.729C36.5038 32.6824 35.7311 33.4552 34.7777 33.4552ZM42.6947 26.3559H22.1273C21.1739 26.3559 20.4011 25.583 20.4011 24.6297C20.4011 23.6765 21.1741 22.9036 22.1273 22.9036H42.6947C43.6481 22.9036 44.4209 23.6765 44.4209 24.6297C44.4209 25.583 43.6481 26.3559 42.6947 26.3559ZM42.6947 19.2565H22.1273C21.1739 19.2565 20.4011 18.4835 20.4011 17.5303C20.4011 16.5769 21.1741 15.8041 22.1273 15.8041H42.6947C43.6481 15.8041 44.4209 16.577 44.4209 17.5303C44.4209 18.4835 43.6481 19.2565 42.6947 19.2565Z" fill="url(#paint1_linear_39_857)"/>
</g>
<defs>
<linearGradient id="paint0_linear_39_857" x1="3.00788" y1="31.6556" x2="27.655" y2="57.4078" gradientUnits="userSpaceOnUse">
<stop stop-color="#EFDA85"/>
<stop offset="1" stop-color="#C78A20"/>
</linearGradient>
<linearGradient id="paint1_linear_39_857" x1="12.9561" y1="6.85452" x2="54.5573" y2="50.0542" gradientUnits="userSpaceOnUse">
<stop stop-color="#EFDA85"/>
<stop offset="1" stop-color="#C78A20"/>
</linearGradient>
<clipPath id="clip0_39_857">
<rect width="58" height="58" fill="white"/>
</clipPath>
</defs>
</svg>
