<svg width="34" height="34" viewBox="0 0 34 34" fill="none">
<path d="M17.0006 0C7.66949 0 0.0761588 7.59333 0.000603201 16.8867C-0.0371746 21.42 1.7006 25.7267 4.91171 28.9378C8.08505 32.1867 12.3539 33.9622 16.8873 34H17.0006C26.3317 34 33.925 26.4067 34.0006 17.1133C34.0762 7.74444 26.4828 0.0755556 17.0006 0ZM25.2362 22.6667L24.5184 23.3844L24.4806 23.4222C23.2339 24.6689 22.1762 24.9711 20.5139 24.48C18.7762 23.9511 17.2273 23.0067 15.8295 21.8733C13.8273 20.2489 11.6739 18.1333 10.2762 15.9422C8.87838 13.6756 8.42505 11.2956 10.3895 9.33111L10.4273 9.29333L11.145 8.57556C11.6739 8.04667 12.5428 8.04667 13.1095 8.57556L15.3384 10.8044C15.8673 11.3333 15.8673 12.2022 15.3384 12.7689L14.0162 14.0911L14.0539 14.1289C15.5273 16.3578 17.4539 18.2844 19.6828 19.7578L19.7206 19.7956L21.0428 18.4733C21.5717 17.9444 22.4406 17.9444 23.0073 18.4733L25.2362 20.7022C25.8028 21.2689 25.8028 22.1378 25.2362 22.6667Z" fill="url(#paint0_linear_21_446)"/>
<defs>
<linearGradient id="paint0_linear_21_446" x1="3.42433" y1="4.34444" x2="31.6632" y2="33.6694" gradientUnits="userSpaceOnUse">
<stop stop-color="#EFDA85"/>
<stop offset="1" stop-color="#C78A20"/>
</linearGradient>
</defs>
</svg>
