<svg width="34" height="34" viewBox="0 0 34 34" fill="none" xmlns="http://www.w3.org/2000/svg">
<g clip-path="url(#clip0_20_676)">
<path fill-rule="evenodd" clip-rule="evenodd" d="M17.7181 34H16.3023C8.6156 34 4.7736 34 2.3868 31.6132C0 29.2264 0 25.3844 0 17.7181V16.2819C0 8.61422 0 4.77361 2.3868 2.38681C4.7736 6.58631e-06 8.6156 0 16.3023 0H17.7181C25.4034 0 29.2672 6.58631e-06 31.6336 2.38681C34 4.77361 34 8.61698 34 16.2819V17.7181V17.9114C34.0002 25.4491 34.0003 29.2465 31.6336 31.6132C29.2468 34 25.4034 34 17.7181 34ZM5.74512 10.3562C5.92595 19.1949 10.5785 24.5138 18.2448 24.5138H18.6896V19.4574C21.4803 19.7402 23.5638 21.8237 24.4138 24.5138H28.438C27.346 20.4896 24.5144 18.2646 22.7546 17.4146C24.5144 16.3634 27.0019 13.8147 27.588 10.3562H23.9283C23.1585 13.1674 20.8737 15.716 18.6896 15.9581V10.3562H14.9672V20.1659C12.7028 19.6042 9.74894 16.8489 9.62792 10.3562H5.74512Z" fill="url(#paint0_linear_20_676)"/>
</g>
<defs>
<linearGradient id="paint0_linear_20_676" x1="3.42421" y1="4.34444" x2="31.6631" y2="33.6685" gradientUnits="userSpaceOnUse">
<stop stop-color="#EFDA85"/>
<stop offset="1" stop-color="#C78A20"/>
</linearGradient>
<clipPath id="clip0_20_676">
<rect width="34" height="34" rx="17" fill="white"/>
</clipPath>
</defs>
</svg>
